HIERARCHY
ROOT Hips
{
	OFFSET 0.000000 35.082581 0.000000
	CHANNELS 6 Xposition Yposition Zposition Xrotation Yrotation Zrotation 
	JOINT Spine
	{
		OFFSET 0.000000 6.876099 0.125700
		CHANNELS 3 Xrotation Yrotation Zrotation
		JOINT Spine1
		{
			OFFSET 0.000000 5.730043 0.104720
			CHANNELS 3 Xrotation Yrotation Zrotation
			JOINT Spine1_split
			{
				OFFSET 0.000000 5.730043 0.104720
				CHANNELS 3 Xrotation Yrotation Zrotation
				JOINT Spine2
				{
					OFFSET 0.000000 5.730043 0.104720
					CHANNELS 3 Xrotation Yrotation Zrotation
					JOINT Neck
					{
						OFFSET 0.000000 10.314075 0.188496
						CHANNELS 3 Xrotation Yrotation Zrotation
						JOINT Head
						{
							OFFSET 0.000000 7.643700 -2.377400
							CHANNELS 3 Xrotation Yrotation Zrotation
							JOINT HeadTop_End
							{
								OFFSET 0.000000 43.788605 -13.619600
								CHANNELS 3 Xrotation Yrotation Zrotation
								End Site
								{
									OFFSET 0.000000 0.000000 0.000000
								}
							}
						}
					}
					JOINT LeftShoulder
					{
						OFFSET 2.196100 4.412489 0.087492
						CHANNELS 3 Xrotation Yrotation Zrotation
						JOINT LeftShoulder_split
						{
							OFFSET 2.196100 4.412489 0.087492
							CHANNELS 3 Xrotation Yrotation Zrotation
							JOINT LeftArm
							{
								OFFSET 8.771219 -2.981674 -0.026999
								CHANNELS 3 Xrotation Yrotation Zrotation
								JOINT LeftForeArm
								{
									OFFSET 8.512804 0.000000 -0.000000
									CHANNELS 3 Xrotation Yrotation Zrotation
									JOINT LeftHand
									{
										OFFSET 18.484802 0.000000 -0.000000
										CHANNELS 3 Xrotation Yrotation Zrotation
										JOINT LeftHandThumb1
										{
											OFFSET 2.499420 -1.158070 2.653252
											CHANNELS 3 Xrotation Yrotation Zrotation
											JOINT LeftHandThumb2
											{
												OFFSET 2.370079 -1.368366 1.368366
												CHANNELS 3 Xrotation Yrotation Zrotation
												JOINT LeftHandThumb3
												{
													OFFSET 2.676727 -1.545410 1.545409
													CHANNELS 3 Xrotation Yrotation Zrotation
													JOINT LeftHandThumb4
													{
														OFFSET 1.692226 -0.977005 0.977007
														CHANNELS 3 Xrotation Yrotation Zrotation
														End Site
														{
															OFFSET 0.000000 0.000000 0.000000
														}
													}
												}
											}
										}
										JOINT LeftHandIndex1
										{
											OFFSET 7.924831 -0.457527 2.345128
											CHANNELS 3 Xrotation Yrotation Zrotation
											JOINT LeftHandIndex2
											{
												OFFSET 3.643303 0.000000 0.000000
												CHANNELS 3 Xrotation Yrotation Zrotation
												JOINT LeftHandIndex3
												{
													OFFSET 3.810799 0.000000 0.000000
													CHANNELS 3 Xrotation Yrotation Zrotation
													JOINT LeftHandIndex4
													{
														OFFSET 2.403702 0.000000 0.000000
														CHANNELS 3 Xrotation Yrotation Zrotation
														End Site
														{
															OFFSET 0.000000 0.000000 0.000000
														}
													}
												}
											}
										}
										JOINT LeftHandMiddle1
										{
											OFFSET 8.563995 0.000000 -0.000000
											CHANNELS 3 Xrotation Yrotation Zrotation
											JOINT LeftHandMiddle2
											{
												OFFSET 3.861618 0.000000 0.000000
												CHANNELS 3 Xrotation Yrotation Zrotation
												JOINT LeftHandMiddle3
												{
													OFFSET 3.701603 0.000000 0.000000
													CHANNELS 3 Xrotation Yrotation Zrotation
													JOINT LeftHandMiddle4
													{
														OFFSET 2.322544 0.000000 0.000000
														CHANNELS 3 Xrotation Yrotation Zrotation
														End Site
														{
															OFFSET 0.000000 0.000000 0.000000
														}
													}
												}
											}
										}
										JOINT LeftHandRing1
										{
											OFFSET 8.426460 -0.424637 -3.286992
											CHANNELS 3 Xrotation Yrotation Zrotation
											JOINT LeftHandRing2
											{
												OFFSET 3.126408 0.000000 0.000000
												CHANNELS 3 Xrotation Yrotation Zrotation
												JOINT LeftHandRing3
												{
													OFFSET 3.085026 0.000000 0.000000
													CHANNELS 3 Xrotation Yrotation Zrotation
													JOINT LeftHandRing4
													{
														OFFSET 1.644005 0.000000 0.000000
														CHANNELS 3 Xrotation Yrotation Zrotation
														End Site
														{
															OFFSET 0.000000 0.000000 0.000000
														}
													}
												}
											}
										}
									}
								}
							}
						}
					}
					JOINT RightShoulder
					{
						OFFSET -2.196100 4.412496 0.070690
						CHANNELS 3 Xrotation Yrotation Zrotation
						JOINT RightShoulder_split
						{
							OFFSET -2.196100 4.412496 0.070690
							CHANNELS 3 Xrotation Yrotation Zrotation
							JOINT RightArm
							{
								OFFSET -8.771282 -2.981682 -0.094208
								CHANNELS 3 Xrotation Yrotation Zrotation
								JOINT RightForeArm
								{
									OFFSET -8.494598 0.000000 0.000000
									CHANNELS 3 Xrotation Yrotation Zrotation
									JOINT RightHand
									{
										OFFSET -18.483803 0.000000 0.000001
										CHANNELS 3 Xrotation Yrotation Zrotation
										JOINT RightHandThumb1
										{
											OFFSET -2.527351 -1.008072 2.575253
											CHANNELS 3 Xrotation Yrotation Zrotation
											JOINT RightHandThumb2
											{
												OFFSET -2.321518 -1.340328 1.340329
												CHANNELS 3 Xrotation Yrotation Zrotation
												JOINT RightHandThumb3
												{
													OFFSET -2.657753 -1.534454 1.534455
													CHANNELS 3 Xrotation Yrotation Zrotation
													JOINT RightHandThumb4
													{
														OFFSET -1.807510 -1.043568 1.043567
														CHANNELS 3 Xrotation Yrotation Zrotation
														End Site
														{
															OFFSET 0.000000 0.000000 0.000000
														}
													}
												}
											}
										}
										JOINT RightHandIndex1
										{
											OFFSET -8.811420 0.015533 2.887987
											CHANNELS 3 Xrotation Yrotation Zrotation
											JOINT RightHandIndex2
											{
												OFFSET -3.537502 0.000000 0.000000
												CHANNELS 3 Xrotation Yrotation Zrotation
												JOINT RightHandIndex3
												{
													OFFSET -3.356201 0.000000 0.000000
													CHANNELS 3 Xrotation Yrotation Zrotation
													JOINT RightHandIndex4
													{
														OFFSET -1.933098 0.000000 0.000000
														CHANNELS 3 Xrotation Yrotation Zrotation
														End Site
														{
															OFFSET 0.000000 0.000000 0.000000
														}
													}
												}
											}
										}
										JOINT RightHandMiddle1
										{
											OFFSET -8.178135 0.000000 0.000000
											CHANNELS 3 Xrotation Yrotation Zrotation
											JOINT RightHandMiddle2
											{
												OFFSET -3.901302 0.000000 0.000000
												CHANNELS 3 Xrotation Yrotation Zrotation
												JOINT RightHandMiddle3
												{
													OFFSET -3.909599 0.000000 0.000000
													CHANNELS 3 Xrotation Yrotation Zrotation
													JOINT RightHandMiddle4
													{
														OFFSET -2.376003 0.000000 0.000000
														CHANNELS 3 Xrotation Yrotation Zrotation
														End Site
														{
															OFFSET 0.000000 0.000000 0.000000
														}
													}
												}
											}
										}
										JOINT RightHandRing1
										{
											OFFSET -7.559013 0.014137 -2.865403
											CHANNELS 3 Xrotation Yrotation Zrotation
											JOINT RightHandRing2
											{
												OFFSET -3.449306 0.000000 0.000000
												CHANNELS 3 Xrotation Yrotation Zrotation
												JOINT RightHandRing3
												{
													OFFSET -3.362106 0.000000 0.000000
													CHANNELS 3 Xrotation Yrotation Zrotation
													JOINT RightHandRing4
													{
														OFFSET -2.076401 0.000000 0.000000
														CHANNELS 3 Xrotation Yrotation Zrotation
														End Site
														{
															OFFSET 0.000000 0.000000 0.000000
														}
													}
												}
											}
										}
									}
								}
							}
						}
					}
				}
			}
		}
	}
	JOINT LeftUpLeg
	{
		OFFSET 10.205400 -3.823500 0.155100
		CHANNELS 3 Xrotation Yrotation Zrotation
		JOINT LeftLeg
		{
			OFFSET 0.708757 -12.982077 0.567790
			CHANNELS 3 Xrotation Yrotation Zrotation
			JOINT LeftFoot
			{
				OFFSET -0.708756 -10.717838 -2.184338
				CHANNELS 3 Xrotation Yrotation Zrotation
				JOINT LeftToeBase
				{
					OFFSET 0.108149 -7.191104 7.560241
					CHANNELS 3 Xrotation Yrotation Zrotation
					JOINT LeftToe_End
					{
						OFFSET 0.070230 0.081724 4.490308
						CHANNELS 3 Xrotation Yrotation Zrotation
						End Site
						{
							OFFSET 0.000000 0.000000 0.000000
						}
					}
				}
			}
		}
	}
	JOINT RightUpLeg
	{
		OFFSET -10.205400 -3.823500 0.005500
		CHANNELS 3 Xrotation Yrotation Zrotation
		JOINT RightLeg
		{
			OFFSET -0.708756 -12.982134 0.610632
			CHANNELS 3 Xrotation Yrotation Zrotation
			JOINT RightFoot
			{
				OFFSET 0.708754 -10.717769 -1.945823
				CHANNELS 3 Xrotation Yrotation Zrotation
				JOINT RightToeBase
				{
					OFFSET -0.108140 -7.191069 7.372968
					CHANNELS 3 Xrotation Yrotation Zrotation
					JOINT RightToe_End
					{
						OFFSET -0.070227 0.081735 4.479403
						CHANNELS 3 Xrotation Yrotation Zrotation
						End Site
						{
							OFFSET 0.000000 0.000000 0.000000
						}
					}
				}
			}
		}
	}
}
MOTION
Frames: 4
Frame Time: 0.016667
0.966728 27.253590 -0.978738 -5.397671 -46.011375 -0.112447 9.463317 6.952821 -1.707179 2.187715 0.989897 -0.915631 0.000000 0.000000 0.000000 2.202831 0.982769 -0.894153 0.084652 13.220553 4.538679 8.920923 20.138147 -4.130236 -0.000001 -0.000000 -0.000001 1.117175 3.546352 -8.633349 0.000000 0.000000 0.000000 -53.487017 4.935508 -51.502987 0.000045 -106.358067 0.000064 1.988596 -7.706152 -15.869256 -6.141210 -11.690801 -6.761688 9.914110 42.595508 3.409842 -0.422809 8.108073 27.509116 -0.000006 -0.000001 -0.000001 0.255316 3.378225 -45.814337 5.654078 5.847759 -88.067455 2.162128 4.544819 -50.866362 0.000000 0.000001 0.000002 -0.461469 3.841596 -39.722686 6.450750 5.820364 -95.892871 2.182897 4.561572 -51.127740 0.000000 -0.000001 -0.000001 0.469729 4.966841 -39.799444 8.181040 5.368622 -113.503018 3.200482 5.218126 -63.022989 0.000000 0.000001 0.000000 3.036135 13.027199 -5.371415 0.000000 0.000000 0.000000 -48.713715 27.172822 83.457084 -0.000033 105.988301 0.000023 -8.345364 17.548098 8.775700 -7.341093 13.749660 7.412326 9.855763 -44.489093 -3.903246 -0.115762 -14.513083 -28.973871 0.000001 0.000000 0.000003 -0.124365 -2.384793 45.108874 4.500590 -4.654540 88.071164 1.723239 -3.618364 50.920109 -0.000000 0.000003 0.000000 -0.761616 -2.932915 39.031058 5.133897 -4.632767 95.881670 1.739759 -3.631692 51.181357 0.000002 -0.000002 0.000000 0.154765 -4.068818 39.122682 6.509727 -4.273574 113.462863 2.549572 -4.153924 63.067317 -0.000001 0.000001 -0.000001 -38.222743 0.278068 24.761886 64.807027 -10.597506 3.829539 -23.765198 -5.113862 -21.315752 -1.594047 0.000018 -0.000000 -0.000000 0.000002 0.000000 -13.650868 -9.632085 -38.353793 66.374767 0.334397 -6.381275 -39.258998 -15.971504 30.409730 -0.013002 -0.000001 -0.000007 -0.000000 -0.000001 -0.000000 
0.981299 27.137886 -0.843708 -5.081758 -46.294165 0.118957 9.688516 7.088426 -2.033164 2.062174 1.010602 -0.893727 0.000000 0.000000 0.000000 2.076819 1.004096 -0.874000 0.115997 13.237042 4.673036 8.696455 20.175030 -3.730634 -0.000000 0.000000 0.000000 1.112660 3.581139 -8.635975 0.000000 0.000000 0.000000 -53.210688 4.972775 -51.357258 -0.000015 -106.367745 -0.000023 2.411215 -7.507508 -16.196276 -6.141212 -11.690803 -6.761689 9.914113 42.595505 3.409837 -0.422813 8.108067 27.509111 -0.000004 -0.000002 0.000001 0.255316 3.378223 -45.814337 5.654076 5.847757 -88.067455 2.162132 4.544820 -50.866362 -0.000001 0.000002 -0.000000 -0.461470 3.841595 -39.722686 6.450752 5.820364 -95.892871 2.182897 4.561574 -51.127743 -0.000000 0.000000 0.000002 0.469729 4.966843 -39.799447 8.181039 5.368627 -113.503018 3.200486 5.218124 -63.022989 0.000001 -0.000002 0.000002 3.105131 13.142795 -5.328019 0.000000 0.000000 0.000000 -48.727451 27.290294 83.461531 0.000014 105.913694 -0.000039 -8.160882 17.583426 8.793037 -7.341089 13.749657 7.412329 9.855754 -44.489096 -3.903253 -0.115759 -14.513090 -28.973864 0.000001 0.000003 0.000003 -0.124364 -2.384793 45.108871 4.500592 -4.654541 88.071164 1.723237 -3.618361 50.920105 -0.000001 0.000001 -0.000001 -0.761615 -2.932913 39.031061 5.133899 -4.632766 95.881670 1.739757 -3.631694 51.181360 0.000001 -0.000002 0.000004 0.154764 -4.068818 39.122682 6.509725 -4.273575 113.462863 2.549569 -4.153923 63.067317 0.000000 -0.000001 -0.000000 -38.434981 0.137477 24.648693 66.186111 -10.586132 3.713176 -24.788763 -4.528552 -20.967294 -1.636959 0.000019 -0.000001 0.000000 -0.000000 -0.000000 -14.187465 -9.413010 -38.945616 66.818825 1.213560 -6.325352 -39.457617 -16.214449 30.207690 -0.024338 -0.000005 0.000008 -0.000000 0.000000 -0.000000 
1.005773 26.989418 -0.685899 -4.840812 -46.672851 0.320172 9.978604 7.220408 -2.298395 1.916817 1.031767 -0.894298 0.000000 0.000000 0.000000 1.931409 1.024991 -0.876843 0.148174 13.275064 4.803502 8.434761 20.259434 -3.299769 0.000000 0.000000 0.000001 1.110772 3.630399 -8.655469 0.000000 0.000000 0.000000 -52.841779 5.112511 -51.141680 -0.000035 -106.568033 -0.000034 2.622617 -7.353739 -16.403715 -6.141212 -11.690803 -6.761691 9.914119 42.595505 3.409843 -0.422814 8.108066 27.509111 -0.000001 0.000002 -0.000000 0.255315 3.378228 -45.814337 5.654075 5.847756 -88.067448 2.162128 4.544816 -50.866359 0.000001 -0.000003 0.000001 -0.461470 3.841599 -39.722686 6.450753 5.820362 -95.892871 2.182899 4.561570 -51.127743 0.000000 0.000001 0.000002 0.469728 4.966844 -39.799441 8.181037 5.368627 -113.503018 3.200485 5.218127 -63.022982 0.000001 0.000001 -0.000000 3.169184 13.274929 -5.296767 0.000000 0.000000 0.000000 -48.735742 27.444508 83.446176 -0.000106 105.845707 0.000065 -7.984246 17.693513 8.782187 -7.341089 13.749661 7.412320 9.855755 -44.489100 -3.903252 -0.115759 -14.513097 -28.973874 -0.000002 0.000001 0.000003 -0.124364 -2.384791 45.108874 4.500589 -4.654540 88.071164 1.723235 -3.618361 50.920109 0.000002 0.000001 0.000000 -0.761615 -2.932911 39.031061 5.133898 -4.632765 95.881670 1.739754 -3.631693 51.181357 0.000000 0.000000 0.000000 0.154764 -4.068817 39.122688 6.509724 -4.273576 113.462857 2.549568 -4.153923 63.067317 0.000001 0.000001 -0.000003 -38.722368 -0.027605 24.583422 67.896793 -10.512184 3.586304 -25.856234 -4.119763 -20.636571 -1.953580 0.000009 -0.000003 0.000000 -0.000001 0.000000 -14.842249 -9.132532 -39.706953 67.426166 2.302900 -6.361713 -39.711683 -16.484076 29.995961 -0.009084 -0.000033 -0.000009 0.000000 0.000002 -0.000000 
1.041962 26.801647 -0.501555 -4.725640 -47.126014 0.471325 10.339163 7.347935 -2.498581 1.751585 1.053340 -0.915969 0.000000 0.000000 0.000000 1.766520 1.045416 -0.901337 0.181828 13.330685 4.930961 8.143636 20.381266 -2.845098 -0.000000 -0.000000 -0.000000 1.111789 3.693832 -8.692019 0.000000 0.000000 0.000000 -52.361712 5.340828 -50.878318 -0.000039 -106.890514 -0.000006 2.654523 -7.266170 -16.480622 -6.141208 -11.690802 -6.761684 9.914119 42.595501 3.409838 -0.422809 8.108071 27.509115 -0.000005 0.000000 0.000001 0.255313 3.378225 -45.814337 5.654077 5.847758 -88.067455 2.162133 4.544822 -50.866365 0.000000 -0.000002 -0.000002 -0.461471 3.841597 -39.722679 6.450751 5.820365 -95.892871 2.182901 4.561573 -51.127740 0.000000 -0.000000 -0.000001 0.469728 4.966841 -39.799441 8.181038 5.368627 -113.503018 3.200483 5.218123 -63.022989 0.000000 0.000001 0.000000 3.224307 13.415405 -5.279477 0.000000 0.000000 0.000000 -48.718151 27.637152 83.417572 -0.000033 105.772221 0.000005 -7.808813 17.876191 8.743104 -7.341087 13.749663 7.412319 9.855762 -44.489100 -3.903240 -0.115761 -14.513088 -28.973871 -0.000001 -0.000000 -0.000000 -0.124364 -2.384789 45.108868 4.500591 -4.654540 88.071164 1.723237 -3.618361 50.920105 -0.000000 -0.000001 -0.000000 -0.761617 -2.932912 39.031055 5.133899 -4.632765 95.881670 1.739753 -3.631694 51.181353 -0.000000 0.000000 0.000001 0.154763 -4.068814 39.122682 6.509726 -4.273576 113.462863 2.549569 -4.153925 63.067324 0.000000 -0.000000 -0.000001 -39.148168 -0.348334 24.646036 70.066628 -10.582238 3.434443 -26.850042 -3.793617 -20.688761 -2.539683 -0.000006 0.000002 0.000000 -0.000003 0.000000 -15.535521 -8.764048 -40.666082 68.194282 3.594681 -6.493045 -40.030424 -16.801104 29.813455 0.012020 -0.000030 0.019602 0.000000 0.000000 -0.000000 
